# xmcd
#
# Track frame offsets:
#	150
#	17012
#	62645
#
# Disc length: 1067 seconds
#
# Revision: 0
# Processed by: cddbd v1.4PL0 Copyright (c) Steve Scherf et al.
# Submitted via: EasyCDDAExtractor 4.6.9.1
#
DISCID=1c042903
DTITLE=Ricky Martin - She Bangs Promo
DYEAR=1900
DGENRE=
TTITLE0=She Bangs(English Edit)
TTITLE1=Interview(She Bangs CD Single Versio)
TTITLE2=She Bangs(English Edit 2)
EXTD=
EXTT0=
EXTT1=
EXTT2=
PLAYORDER=
